<svg xmlns="http://www.w3.org/2000/svg">
<symbol id="paste" viewBox="0 0 24 24">
    <g data-name="그룹 37">
        <g data-name="그룹 41">
            <g data-name="그룹 40">
                <path data-name="패스 3" d="M11.968 19.844H4.914a.784.784 0 0 1-.784-.784V4.944a.784.784 0 0 1 .784-.784h7.054a.784.784 0 0 0 0-1.568H4.914a2.355 2.355 0 0 0-2.352 2.352v14.11a2.354 2.354 0 0 0 2.352 2.352h7.054a.784.784 0 0 0 0-1.568z"/>
            </g>
        </g>
        <g data-name="그룹 43">
            <g data-name="그룹 42">
                <path data-name="패스 4" d="M21.204 11.442l-4.766-4.7a.784.784 0 1 0-1.1 1.116l3.406 3.361H9.617a.784.784 0 0 0 0 1.568h9.127l-3.411 3.361a.784.784 0 1 0 1.1 1.116l4.766-4.7a.783.783 0 0 0 0-1.116z"/>
            </g>
        </g>
    </g>
</symbol>
</svg>
